<svg width="16" height="17" viewBox="0 0 16 17" fill="none" xmlns="http://www.w3.org/2000/svg">
<path d="M11.7959 10.6476C11.7959 12.1563 10.7901 13.2165 9.526 13.6379V14.5C9.526 15.0523 9.07828 15.5 8.526 15.5H8.18813C7.63585 15.5 7.18813 15.0523 7.18813 14.5V13.6922C6.29104 13.4204 5.44833 12.8087 4.7959 11.7893L6.33182 10.3621C6.84833 11.2049 7.50075 11.6806 8.18036 11.6806C8.91434 11.6806 9.41726 11.3408 9.41726 10.6204C9.41726 9.15243 5.12211 9.9 5.12211 6.43398C5.12211 4.95243 6.03279 3.91942 7.18813 3.48447V2.5C7.18813 1.94772 7.63585 1.5 8.18813 1.5H8.526C9.07828 1.5 9.526 1.94772 9.526 2.5V3.4301C10.3551 3.70194 11.1299 4.31359 11.7415 5.31942L10.2056 6.7466C9.82502 5.90388 9.14541 5.40097 8.53376 5.40097C7.89493 5.40097 7.40561 5.72718 7.40561 6.42039C7.40561 7.86117 11.7959 7.24951 11.7959 10.6476Z" fill="#858699"/>
</svg>
